<?xml version="1.0" encoding="UTF-8"?>
<svg xmlns="http://www.w3.org/2000/svg" xmlns:xlink="http://www.w3.org/1999/xlink" id="Gradient" viewBox="0 0 512 512" width="512" height="512"><defs><linearGradient id="linear-gradient" x1="256" y1="504" x2="256" y2="8" gradientUnits="userSpaceOnUse"><stop offset="0" stop-color="#12bee5"/><stop offset="0.5" stop-color="#c071e9"/><stop offset="1" stop-color="#f24f5a"/></linearGradient></defs><path d="M256,264a95.4,95.4,0,0,0,55.216-17.459A8,8,0,0,0,302,233.459,80.006,80.006,0,1,1,336,168v16a16,16,0,0,1-32,0V128a8,8,0,0,0-16,0v4.261a48,48,0,1,0,4.079,67.346A31.991,31.991,0,0,0,352,184V168a96,96,0,1,0-96,96Zm0-64a32,32,0,1,1,32-32A32.036,32.036,0,0,1,256,200ZM56,504H456a40.045,40.045,0,0,0,40-40V208a40.148,40.148,0,0,0-19.771-34.508L432,147.565V48A40.045,40.045,0,0,0,392,8H120A40.045,40.045,0,0,0,80,48v99.565L35.771,173.492A40.149,40.149,0,0,0,16,208V464A40.045,40.045,0,0,0,56,504Zm424-40a24.028,24.028,0,0,1-24,24H56a24.028,24.028,0,0,1-24-24V221.963L235.771,341.415a40.037,40.037,0,0,0,40.458,0L480,221.963ZM468.137,187.3a24.1,24.1,0,0,1,11.454,16.361L432,231.554V166.111ZM120,24H392a24.028,24.028,0,0,1,24,24V240.933L268.137,327.612a24.026,24.026,0,0,1-24.274,0L96,240.933V48A24.028,24.028,0,0,1,120,24ZM43.863,187.3,80,166.111v65.443l-47.591-27.9A24.1,24.1,0,0,1,43.863,187.3Z" style="fill:url(#linear-gradient)"/></svg>
